<svg width="31" height="32" viewBox="0 0 31 32" fill="none" xmlns="http://www.w3.org/2000/svg">
<g clip-path="url(#clip0_708_4337)">
<path d="M0 2.93129C0.00121255 2.6162 0.123647 2.31366 0.341916 2.08641C0.44766 1.97629 0.574465 1.88855 0.714793 1.82841C0.855122 1.76827 1.00611 1.73695 1.15878 1.73633H4.6293C4.782 1.73675 4.93305 1.76798 5.0734 1.82813C5.21376 1.88828 5.34054 1.97613 5.44616 2.08641C5.6648 2.31513 5.78648 2.61955 5.78574 2.93595V24.5409C5.78463 24.8568 5.90592 25.1609 6.12416 25.3893C6.22982 25.4995 6.35661 25.5873 6.49696 25.6475C6.63731 25.7076 6.78833 25.7389 6.94103 25.7394H21.9854C22.1381 25.7389 22.2891 25.7076 22.4294 25.6475C22.5698 25.5873 22.6966 25.4995 22.8022 25.3893C23.0205 25.1609 23.1418 24.8568 23.1406 24.5409V20.9432C23.1418 20.6273 23.0205 20.3232 22.8022 20.0948C22.6966 19.9846 22.5698 19.8968 22.4294 19.8366C22.2891 19.7765 22.1381 19.7452 21.9854 19.7447H15.0432C14.5851 19.7434 14.1319 19.6497 13.7109 19.4692C13.2898 19.2888 12.9095 19.0253 12.5926 18.6945C11.9377 18.0088 11.5734 17.0964 11.5762 16.1482V5.33871C11.5731 4.39013 11.9374 3.4772 12.5926 2.79125C12.9095 2.46045 13.2898 2.19695 13.7109 2.01649C14.1319 1.83604 14.5851 1.74234 15.0432 1.741H25.4512C25.9093 1.74234 26.3624 1.83604 26.7835 2.01649C27.2046 2.19695 27.5849 2.46045 27.9018 2.79125C28.5583 3.47665 28.9238 4.38965 28.9217 5.33871V28.1549C28.9248 29.1035 28.5605 30.0165 27.9053 30.7024C27.5884 31.0332 27.2081 31.2967 26.787 31.4772C26.3659 31.6576 25.9128 31.7513 25.4547 31.7527H3.47168C3.01356 31.7514 2.5604 31.6578 2.13932 31.4773C1.71824 31.2969 1.3379 31.0333 1.02108 30.7024C0.365571 30.0166 0.000909621 29.1037 0.00350071 28.1549L0 2.93129ZM23.1418 8.93408C23.1432 8.61813 23.0219 8.31398 22.8034 8.08571C22.6977 7.97548 22.5709 7.88767 22.4306 7.82752C22.2903 7.76737 22.1392 7.73612 21.9865 7.73563H17.3572V12.5388C17.3561 12.8551 17.4773 13.1595 17.6957 13.3883C17.8014 13.4984 17.9283 13.5861 18.0686 13.6463C18.2089 13.7064 18.3599 13.7377 18.5125 13.7384H23.1406L23.1418 8.93408Z" fill="#13367D"/>
</g>
<defs>
<clipPath id="clip0_708_4337">
<rect width="30.2222" height="32" fill="white"/>
</clipPath>
</defs>
</svg>
