<svg width="32" height="26" viewBox="0 0 32 26" fill="none" xmlns="http://www.w3.org/2000/svg">
<g id="Logo">
<g id="Group 34889">
<path id="Vector" d="M7.35764 0.932413H7.32966C6.94037 0.932413 6.56874 1.15788 6.40031 1.5377L6.40028 1.53777L1.01949 13.7072L1.01948 13.7072C0.824033 14.1496 0.966107 14.6693 1.36062 14.9491L1.38039 14.9213C1.36063 14.9491 1.36068 14.9492 1.36077 14.9492L1.36125 14.9496L1.36315 14.9509L1.3707 14.9563L1.40056 14.9775L1.51704 15.0601L1.95919 15.3739L3.53783 16.4943L8.33262 19.8972L15.3537 24.8802L15.3539 24.8804C15.7059 25.1295 16.1766 25.1305 16.5281 24.8802C16.5478 24.8662 17.8422 23.9476 19.6364 22.6743C23.6959 19.7933 30.3141 15.0965 30.5165 14.9523C30.9117 14.6716 31.0538 14.152 30.8575 13.7087L30.8575 13.7087C30.7579 13.484 29.2688 10.1169 27.8831 6.98356C26.6539 4.20408 25.506 1.60852 25.4814 1.55344C25.2546 1.03986 24.6545 0.807518 24.1416 1.03555C23.6286 1.2628 23.3967 1.8639 23.6244 2.37761L23.6244 2.37768C23.6424 2.41822 24.2731 3.84446 25.0969 5.70727C26.317 8.46639 27.9607 12.1833 28.6644 13.7739C26.2567 15.4827 18.1911 21.207 15.9413 22.8032C13.6891 21.2047 5.61446 15.4743 3.21347 13.7707L8.25824 2.36252L8.25826 2.36248C8.48499 1.84893 8.25413 1.24784 7.74108 1.02053C7.74106 1.02053 7.74105 1.02052 7.74103 1.02052L7.71366 1.08231C7.58882 1.02691 7.45845 1.00079 7.33045 1.00079L7.35764 0.932413ZM7.35764 0.932413L7.35883 0.933601L7.35764 0.932413Z" fill="#AEFC40" stroke="#AEFC40" stroke-width="0.135172"/>
<path id="Vector_2" d="M6.70933 1.14782L6.7093 1.14785C6.35577 1.42429 6.22564 1.90072 6.38877 2.3194H6.38877L6.38878 2.31941L14.9922 24.4199L14.9922 24.4199C15.1444 24.8107 15.5198 25.0676 15.9377 25.0676C16.3556 25.0676 16.731 24.8107 16.8832 24.4208L16.8832 24.4207L25.4867 2.33603C25.6498 1.91731 25.5197 1.44177 25.1671 1.16458C24.8143 0.887238 24.322 0.87541 23.9559 1.13486L15.9386 6.8151L7.92136 1.11995L6.70933 1.14782ZM6.70933 1.14782C6.8928 1.00456 7.11355 0.932476 7.33428 0.932476M6.70933 1.14782L7.33428 0.932476M7.33428 0.932476C7.53965 0.932476 7.74524 0.994343 7.92125 1.11987L7.33428 0.932476ZM15.35 8.89212L15.3891 8.83702L15.35 8.89212L9.51023 4.74346L15.9377 21.2531L22.3646 4.75253L16.5223 8.89212C16.1713 9.14146 15.701 9.14146 15.35 8.89212Z" fill="#AEFC40" stroke="#AEFC40" stroke-width="0.135172"/>
</g>
</g>
</svg>
