<svg width="45" height="45" viewBox="0 0 45 45" fill="none" xmlns="http://www.w3.org/2000/svg">
<rect width="45" height="45" rx="12" fill="#800080"/>
<path d="M16.9347 29.5V14.9545H22.3892C23.5066 14.9545 24.4441 15.1487 25.2017 15.5369C25.964 15.9252 26.5393 16.4697 26.9276 17.1705C27.3205 17.8665 27.517 18.6785 27.517 19.6065C27.517 20.5393 27.3182 21.349 26.9205 22.0355C26.5275 22.7173 25.9474 23.2453 25.1804 23.6193C24.4134 23.9886 23.4711 24.1733 22.3537 24.1733H18.4688V21.9858H21.9986C22.652 21.9858 23.187 21.8958 23.6037 21.7159C24.0204 21.5312 24.3281 21.2637 24.527 20.9134C24.7306 20.5582 24.8324 20.1226 24.8324 19.6065C24.8324 19.0904 24.7306 18.6501 24.527 18.2855C24.3234 17.9162 24.0133 17.6368 23.5966 17.4474C23.1799 17.2533 22.6425 17.1562 21.9844 17.1562H19.5696V29.5H16.9347ZM24.4489 22.9091L28.0497 29.5H25.1094L21.5724 22.9091H24.4489Z" fill="white"/>
</svg>
